<svg xmlns="http://www.w3.org/2000/svg" viewBox="0 0 64 64" role="img" aria-label="Canva icon">
  <defs>
    <linearGradient id="g1" x1="0" x2="1" y1="0" y2="1">
      <stop offset="0" stop-color="#00C4CC"/>
      <stop offset="1" stop-color="#7D2AE8"/>
    </linearGradient>
  </defs>
  <circle cx="32" cy="32" r="28" fill="url(#g1)"/>
  <path d="M40.9 38.8c-1.7 2.2-4.2 3.6-7.1 3.6-5.1 0-9.3-4.2-9.3-9.4 0-5.2 4.2-9.4 9.3-9.4 2.8 0 5.4 1.3 7.1 3.5l-2.8 2.1c-1-1.3-2.6-2.1-4.3-2.1-3.2 0-5.8 2.6-5.8 5.9 0 3.3 2.6 5.9 5.8 5.9 1.8 0 3.3-.8 4.3-2.1l2.8 2z" fill="#fff"/>
</svg>
